:SAMPLES-PER-SECOND 30
:FULLY-SPECIFIED
:DEGREES
223
root  4.372066588 36.19466767 -0.1747377745 -154.7449951 -85.60230255 141.507019
lowerback  11.57260036 3.24980998 0.7999449968
upperback  4.49612999 4.274099827 2.217789888
thorax  -1.889969945 2.044620037 1.297140002
lowerneck  -9.405349731 5.304409981 0.8891609907
upperneck  20.85289955 6.122900009 3.678859949
head  7.892010212 3.222830057 1.629349947
lclavicle  0 -9.442270133e-015 7.951389973e-016
lhumerus  5.892650127 -16.68440056 84.04689789
lradius  2.062358325e-031 -2.866273221e-031 125.7360001
lwrist  -1.412450015e-030 1.324171889e-031 27.0114994
lhand  -1.496451383e-031 -27.76390076 20.11240005
lfingers  90 7.125020027 -90
lthumb  89.89689403 5.08795885 91.16245106
rclavicle  0 -9.442270133e-015 7.951389973e-016
rhumerus  23.48460007 27.13570023 -80.93740082
rradius  -1.254330323e-031 3.300833149e-031 110.8069992
rwrist  7.062250077e-031 1.765562519e-031 -48.19029999
rhand  -7.920061211e-032 -33.2840004 9.303460121
rfingers  -90 -7.125020027 -90
rthumb  -92.93752616 -24.25625642 -97.11982154
rfemur  -5.787419796 16.36219978 -0.9079369903
rtibia  -0 0 59.52180099
rfoot  -4.832095193e-032 -24.01259995 -4.383170128
rtoes  5.373923086 19.29304026 -105.8922705
lfemur  -14.83139992 -9.062720299 -1.980360031
ltibia  -0 0 58.23970032
lfoot  4.603569211e-032 -16.50379944 -3.09980011
ltoes  -4.250644065 -19.5611806 -102.515957
224
root  4.389266517 36.08488849 -0.115831783 -158.7420044 -84.92220306 145.5209961
lowerback  11.32199955 3.302619934 0.51394701
upperback  4.477059841 4.318809986 2.560849905
thorax  -1.822289944 2.062959909 1.818500042
lowerneck  -9.239339828 5.216289997 0.2881900072
upperneck  21.74810028 5.986000061 4.017680168
head  8.128020287 3.128809929 1.841830015
lclavicle  0 -9.442270133e-015 7.951389973e-016
lhumerus  6.552130222 -15.34350014 84.65940094
lradius  2.040688758e-031 -2.881741389e-031 125.3040009
lwrist  -7.062250077e-031 -3.310429724e-032 28.8220005
lhand  -1.496451383e-031 -27.76390076 20.11240005
lfingers  90 7.125020027 -90
lthumb  89.89689403 5.08795885 91.16245106
rclavicle  0 -9.442270133e-015 7.951389973e-016
rhumerus  24.61910057 27.74209976 -81.14980316
rradius  -1.193168211e-031 3.323431007e-031 109.7490005
rwrist  7.062250077e-031 5.296687558e-031 -50.59749985
rhand  -7.920061211e-032 -33.2840004 9.303460121
rfingers  -90 -7.125020027 -90
rthumb  -92.93752616 -24.25625642 -97.11982154
rfemur  -6.54324007 15.78050041 -1.437250018
rtibia  -0 0 60.02759933
rfoot  -4.849288424e-032 -24.46459961 -4.341119766
rtoes  5.373923086 19.29304026 -105.8922705
lfemur  -14.07400036 -8.482319832 -2.18156004
ltibia  -0 0 57.73809814
lfoot  4.636866576e-032 -17.84000015 -2.409559965
ltoes  -4.250644065 -19.5611806 -102.515957
225
root  4.4227112 36.00089006 -0.05197244601 -160.8850098 -84.14600372 147.6630249
lowerback  11.16349983 3.213860035 -0.01305210032
upperback  4.470019817 4.152910233 3.119790077
thorax  -1.816900015 1.970690012 2.722140074
lowerneck  -8.956709862 5.293550014 -1.065340042
upperneck  22.86429977 6.148029804 4.571169853
head  8.374650002 3.126149893 2.28034997
lclavicle  0 -9.442270133e-015 7.951389973e-016
lhumerus  7.156050205 -13.44169998 85.44390106
lradius  2.019004249e-031 -2.896975298e-031 124.8740005
lwrist  -1.412450015e-030 2.206953149e-031 31.09799957
lhand  -1.496451383e-031 -27.76390076 20.11240005
lfingers  90 7.125020027 -90
lthumb  89.89689403 5.08795885 91.16245106
rclavicle  0 -9.442270133e-015 7.951389973e-016
rhumerus  25.85409927 28.93090057 -81.23899841
rradius  -1.128037211e-031 3.346098637e-031 108.6299973
rwrist  0 5.296687558e-031 -53.68460083
rhand  -7.920061211e-032 -33.2840004 9.303460121
rfingers  -90 -7.125020027 -90
rthumb  -92.93752616 -24.25625642 -97.11982154
rfemur  -7.281439781 15.15100002 -2.103519917
rtibia  -0 0 60.40039825
rfoot  -4.860297443e-032 -24.74830055 -4.457039833
rtoes  5.373923086 19.29304026 -105.8922705
lfemur  -13.45540047 -7.702469826 -2.580960035
ltibia  -0 0 57.38249969
lfoot  4.664339279e-032 -18.86039925 -1.527400017
ltoes  -4.250644065 -19.5611806 -102.515957
226
root  4.472133306 35.95399932 0.01664002257 -158.5629883 -83.15879822 145.2410278
lowerback  11.12059975 3.363059998 -0.7496079803
upperback  4.500969887 4.277560234 3.253240108
thorax  -1.830819964 2.026900053 3.260360003
lowerneck  -8.520600319 5.14549017 -1.691390038
upperneck  23.90089989 5.849050045 5.092199802
head  8.61303997 2.953210115 2.54399991
lclavicle  0 -9.442270133e-015 7.951389973e-016
lhumerus  8.155030251 -12.27000046 85.92230225
lradius  1.991458994e-031 -2.915979271e-031 124.3310013
lwrist  -7.062250077e-031 -0 33.7458992
lhand  -1.496451383e-031 -27.76390076 20.11240005
lfingers  90 7.125020027 -90
lthumb  89.89689403 5.08795885 91.16245106
rclavicle  0 -9.442270133e-015 7.951389973e-016
rhumerus  26.91500092 29.37590027 -81.72319794
rradius  -1.071523677e-031 3.364621977e-031 107.6650009
rwrist  7.062250077e-031 1.765562519e-031 -56.57020187
rhand  -7.920061211e-032 -33.2840004 9.303460121
rfingers  -90 -7.125020027 -90
rthumb  -92.93752616 -24.25625642 -97.11982154
rfemur  -7.947909832 14.52390003 -3.401760101
rtibia  -0 0 60.63159943
rfoot  -4.864151462e-032 -24.84659958 -4.25593996
rtoes  5.373923086 19.29304026 -105.8922705
lfemur  -12.91740036 -6.809080124 -3.653310061
ltibia  -0 0 57.22639847
lfoot  4.974208304e-032 -19.46960068 -0.08751159906
ltoes  -4.250644065 -19.5611806 -102.515957
227
root  4.534577948 35.95555523 0.08708399933 -157.6110229 -82.26499939 144.25
lowerback  11.04679966 4.053190231 -0.5658770204
upperback  4.507619858 5.206570148 2.560480118
thorax  -1.762549996 2.501140118 2.320909977
lowerneck  -8.097160339 4.42592001 -0.02905520052
upperneck  24.86009979 4.323410034 5.532629967
head  8.964590073 2.39673996 2.288290024
lclavicle  0 -9.442270133e-015 7.951389973e-016
lhumerus  9.981399536 -13.2567997 85.6026001
lradius  1.949626582e-031 -2.944112808e-031 123.5130005
lwrist  -7.062250077e-031 2.648343779e-031 36.81940079
lhand  -1.496451383e-031 -27.76390076 20.11240005
lfingers  90 7.125020027 -90
lthumb  89.89689403 5.08795885 91.16245106
rclavicle  0 -9.442270133e-015 7.951389973e-016
rhumerus  27.61569977 27.48749924 -83.02709961
rradius  -1.022731104e-031 3.37977294e-031 106.8359985
rwrist  1.059337512e-030 7.062250077e-031 -58.85499954
rhand  -7.920061211e-032 -33.2840004 9.303460121
rfingers  -90 -7.125020027 -90
rthumb  -92.93752616 -24.25625642 -97.11982154
rfemur  -8.602210045 13.91489983 -4.525869846
rtibia  -0 0 60.69079971
rfoot  -4.858699836e-032 -24.70739937 -3.673969984
rtoes  5.373923086 19.29304026 -105.8922705
lfemur  -12.65869999 -5.836900234 -4.518360138
ltibia  -0 0 57.28570175
lfoot  5.856664332e-032 -19.59799957 1.095530033
ltoes  -4.250644065 -19.5611806 -102.515957
